<svg xmlns="http://www.w3.org/2000/svg" xmlns:xlink="http://www.w3.org/1999/xlink" width="44" height="41"
     viewBox="0 0 44 41">
    <defs>
        <path id="irz4a"
              d="M257.636 1011.167v27.5c0 2.024-1.628 3.666-3.636 3.666h-36.364c-2.008 0-3.636-1.642-3.636-3.666v-27.5c0-2.025 1.628-3.667 3.636-3.667H254c2.008 0 3.636 1.642 3.636 3.667zm-1.818 20.166h-40v7.334c0 1.012.814 1.833 1.818 1.833H254c1.004 0 1.818-.82 1.818-1.833zm0-11h-40v9.167h40zm0-9.166a1.826 1.826 0 0 0-1.818-1.834h-36.364c-1.004 0-1.818.821-1.818 1.834v7.333h40zm-25.454-5.5h-1.819c0-2.025 1.629-3.667 3.637-3.667h7.273c2.008 0 3.636 1.642 3.636 3.667h-1.818a1.826 1.826 0 0 0-1.818-1.834h-7.273c-1.004 0-1.818.821-1.818 1.834z"/>
    </defs>
    <g>
        <g transform="translate(-214 -1002)">
            <use fill="#fff" xlink:href="#irz4a"/>
        </g>
    </g>
</svg>
