<svg xmlns="http://www.w3.org/2000/svg" xmlns:xlink="http://www.w3.org/1999/xlink" width="44" height="44"
     viewBox="0 0 44 44">
    <defs>
        <path id="x294a"
              d="M1125.909 1018.5c0 2.025-1.628 3.667-3.636 3.667-2.009 0-3.637-1.642-3.637-3.667s1.628-3.667 3.637-3.667c2.008 0 3.636 1.642 3.636 3.667zm-1.818 0a1.826 1.826 0 0 0-1.818-1.833 1.826 1.826 0 0 0-1.819 1.833c0 1.012.814 1.833 1.819 1.833 1.004 0 1.818-.82 1.818-1.833zm12.727 0c0 2.025-1.628 3.667-3.636 3.667s-3.637-1.642-3.637-3.667 1.629-3.667 3.637-3.667 3.636 1.642 3.636 3.667zm-1.818 0a1.826 1.826 0 0 0-1.818-1.833 1.826 1.826 0 0 0-1.819 1.833c0 1.012.814 1.833 1.819 1.833 1.004 0 1.818-.82 1.818-1.833zm12.727 0c0 2.025-1.628 3.667-3.636 3.667-2.009 0-3.637-1.642-3.637-3.667s1.628-3.667 3.637-3.667c2.008 0 3.636 1.642 3.636 3.667zm-1.818 0a1.826 1.826 0 0 0-1.818-1.833 1.826 1.826 0 0 0-1.819 1.833c0 1.012.814 1.833 1.819 1.833 1.004 0 1.818-.82 1.818-1.833zm9.091-11v22c0 3.038-2.442 5.5-5.455 5.5h-9.09l-16.364 11 3.636-11h-10.909c-3.012 0-5.454-2.462-5.454-5.5v-22c0-3.037 2.442-5.5 5.454-5.5h32.727c3.013 0 5.455 2.463 5.455 5.5zm-1.819 0c0-2.025-1.628-3.667-3.636-3.667h-32.727c-2.008 0-3.636 1.642-3.636 3.667v22c0 2.025 1.628 3.667 3.636 3.667h13.636l-3.636 9.166 12.727-9.166h10c2.008 0 3.636-1.642 3.636-3.667z"/>
    </defs>
    <g>
        <g transform="translate(-1111 -1002)">
            <use fill="#fff" xlink:href="#x294a"/>
        </g>
    </g>
</svg>
