<svg xmlns="http://www.w3.org/2000/svg" xmlns:xlink="http://www.w3.org/1999/xlink" width="45" height="44"
     viewBox="0 0 45 44">
    <defs>
        <path id="bij0a"
              d="M530.609 1022.625l11.664-11.204-3.791 15.788a4.525 4.525 0 0 1-6.21 1.677c-2.173-1.266-2.918-4.069-1.663-6.261zm2.573 4.673c1.235.72 2.803.35 3.602-.81l2.267-9.44-6.974 6.699a2.765 2.765 0 0 0 1.105 3.551zm23.182-3.298c0 12.15-9.769 22-21.818 22-12.05 0-21.819-9.85-21.819-22s9.769-22 21.819-22c12.05 0 21.818 9.85 21.818 22zm-1.842.917h-3.613v-1.834h3.593a20.151 20.151 0 0 0-5.198-12.667l-2.545 2.565-1.285-1.296 2.543-2.565c-3.347-3.082-7.725-5.045-12.562-5.263v3.643h-1.819v-3.643c-4.837.218-9.215 2.181-12.562 5.263l2.543 2.565-1.285 1.296-2.545-2.565a20.151 20.151 0 0 0-5.198 12.667h3.593v1.834h-3.613c.475 10.711 9.236 19.25 19.977 19.25 10.74 0 19.501-8.539 19.976-19.25z"/>
    </defs>
    <g>
        <g transform="translate(-512 -1002)">
            <use fill="#fff" xlink:href="#bij0a"/>
        </g>
    </g>
</svg>
